<svg xmlns="http://www.w3.org/2000/svg" xmlns:xlink="http://www.w3.org/1999/xlink" width="450" zoomAndPan="magnify" viewBox="0 0 337.5 82.499998" height="110" preserveAspectRatio="xMidYMid meet" version="1.0"><defs><clipPath id="93870a6b9b"><path d="M 254 23 L 284.4375 23 L 284.4375 70 L 254 70 Z M 254 23 " clip-rule="nonzero"/></clipPath></defs><path fill="#ffffff" d="M 92.917969 63.222656 L 95.460938 62.964844 L 95.628906 68.128906 C 89.980469 68.984375 84.277344 69.453125 78.5625 69.53125 C 72.261719 69.53125 67.796875 67.703125 65.175781 64.046875 C 62.550781 60.394531 61.238281 54.710938 61.234375 47 C 61.234375 31.636719 67.332031 23.953125 79.527344 23.949219 C 85.425781 23.949219 89.828125 25.597656 92.742188 28.898438 C 95.65625 32.199219 97.113281 37.390625 97.117188 44.464844 L 96.773438 49.460938 L 67.886719 49.460938 C 67.886719 54.308594 68.761719 57.902344 70.511719 60.242188 C 72.257812 62.578125 75.308594 63.746094 79.660156 63.746094 C 84.003906 63.75 88.421875 63.574219 92.917969 63.222656 Z M 90.550781 44.203125 C 90.550781 38.832031 89.691406 35.035156 87.972656 32.8125 C 86.253906 30.585938 83.464844 29.476562 79.609375 29.484375 C 75.730469 29.484375 72.8125 30.652344 70.855469 32.988281 C 68.902344 35.324219 67.890625 39.0625 67.820312 44.203125 Z M 90.550781 44.203125 " fill-opacity="1" fill-rule="nonzero"/><path fill="#ffffff" d="M 106.269531 11.300781 L 112.835938 11.300781 L 112.835938 69.472656 L 106.269531 69.472656 Z M 106.269531 11.300781 " fill-opacity="1" fill-rule="nonzero"/><path fill="#ffffff" d="M 154.175781 38.074219 L 154.175781 60.210938 C 154.175781 62.425781 159.628906 62.3125 159.628906 62.3125 L 159.289062 68.121094 C 154.675781 68.121094 150.859375 68.507812 148.566406 66.285156 C 143.613281 68.492188 138.242188 69.613281 132.820312 69.574219 C 128.796875 69.574219 125.734375 68.433594 123.632812 66.152344 C 121.527344 63.867188 120.476562 60.597656 120.476562 56.335938 C 120.476562 52.070312 121.558594 48.929688 123.71875 46.914062 C 125.878906 44.894531 129.265625 43.667969 133.875 43.222656 L 147.609375 41.902344 L 147.609375 38.140625 C 147.609375 35.15625 146.96875 33.023438 145.6875 31.742188 C 144.988281 31.078125 144.160156 30.566406 143.257812 30.234375 C 142.355469 29.898438 141.390625 29.753906 140.429688 29.808594 L 123.1875 29.808594 L 123.1875 23.957031 L 140.035156 23.957031 C 144.996094 23.957031 148.597656 25.09375 150.84375 27.371094 C 153.089844 29.648438 154.199219 33.21875 154.175781 38.074219 Z M 127.21875 55.953125 C 127.21875 61.324219 129.429688 64.011719 133.851562 64.011719 C 137.84375 64.007812 141.808594 63.328125 145.574219 61.996094 L 147.585938 61.257812 L 147.585938 46.832031 L 134.65625 48.066406 C 132.03125 48.296875 130.136719 49.054688 128.964844 50.335938 C 127.800781 51.628906 127.21875 53.496094 127.21875 55.953125 Z M 127.21875 55.953125 " fill-opacity="1" fill-rule="nonzero"/><path fill="#ffffff" d="M 179.824219 29.828125 C 173.46875 29.828125 170.289062 32.042969 170.28125 36.472656 C 170.28125 38.511719 171.019531 39.960938 172.492188 40.808594 C 173.96875 41.660156 177.273438 42.546875 182.417969 43.46875 C 187.617188 44.378906 191.300781 45.648438 193.472656 47.28125 C 195.644531 48.914062 196.722656 51.984375 196.707031 56.484375 C 196.707031 60.984375 195.265625 64.289062 192.382812 66.386719 C 189.496094 68.488281 185.28125 69.542969 179.730469 69.546875 C 176.109375 69.546875 164.042969 68.203125 164.042969 68.203125 L 164.386719 62.507812 C 171.328125 63.175781 176.347656 63.671875 179.730469 63.671875 C 183.113281 63.671875 185.699219 63.132812 187.472656 62.046875 C 189.25 60.964844 190.148438 59.15625 190.148438 56.617188 C 190.148438 54.078125 189.410156 52.351562 187.871094 51.453125 C 186.332031 50.550781 183.023438 49.679688 177.894531 48.867188 C 172.765625 48.058594 169.109375 46.847656 166.953125 45.273438 C 164.792969 43.703125 163.71875 40.773438 163.71875 36.507812 C 163.71875 32.242188 165.191406 29.085938 168.21875 27.039062 C 171.246094 24.996094 174.976562 23.96875 179.472656 23.96875 C 183.023438 23.96875 195.375 24.878906 195.375 24.878906 L 195.375 30.613281 C 188.859375 30.300781 183.507812 29.828125 179.824219 29.828125 Z M 179.824219 29.828125 " fill-opacity="1" fill-rule="nonzero"/><path fill="#ffffff" d="M 228.347656 30.53125 L 214.457031 30.53125 L 214.457031 51.480469 C 214.457031 56.507812 214.824219 59.8125 215.554688 61.382812 C 216.292969 62.964844 218.015625 63.753906 220.765625 63.753906 L 228.554688 63.222656 L 228.988281 68.660156 C 226.042969 69.207031 223.058594 69.527344 220.066406 69.628906 C 215.511719 69.628906 212.359375 68.515625 210.613281 66.292969 C 208.863281 64.066406 207.984375 59.832031 207.980469 53.585938 L 207.980469 30.53125 L 201.769531 30.53125 L 201.769531 24.832031 L 207.980469 24.832031 L 207.980469 11.425781 L 214.457031 11.425781 L 214.457031 24.832031 L 228.378906 24.832031 Z M 228.347656 30.53125 " fill-opacity="1" fill-rule="nonzero"/><path fill="#ffffff" d="M 237.46875 18.976562 L 237.46875 11.34375 L 244.035156 11.34375 L 244.035156 18.976562 Z M 237.46875 69.472656 L 237.46875 25.105469 L 244.035156 25.105469 L 244.035156 69.472656 Z M 237.46875 69.472656 " fill-opacity="1" fill-rule="nonzero"/><g clip-path="url(#93870a6b9b)"><path fill="#ffffff" d="M 272.472656 23.957031 C 275.75 24.097656 279.015625 24.453125 282.25 25.019531 L 284.351562 25.277344 L 284.085938 30.625 C 280.660156 30.191406 277.21875 29.925781 273.769531 29.835938 C 268.808594 29.835938 265.4375 31.019531 263.660156 33.386719 C 261.882812 35.753906 260.992188 40.136719 260.992188 46.535156 C 260.992188 52.933594 261.820312 57.386719 263.480469 59.902344 C 265.144531 62.414062 268.601562 63.671875 273.859375 63.671875 L 284.175781 62.882812 L 284.4375 68.3125 C 280.414062 69 276.351562 69.414062 272.273438 69.546875 C 265.449219 69.546875 260.738281 67.792969 258.140625 64.285156 C 255.542969 60.777344 254.242188 54.875 254.242188 46.574219 C 254.242188 38.238281 255.640625 32.394531 258.441406 29.039062 C 261.242188 25.683594 265.917969 23.988281 272.472656 23.957031 Z M 272.472656 23.957031 " fill-opacity="1" fill-rule="nonzero"/></g></svg>