<svg width="52" height="50" viewBox="0 0 52 50" fill="none" xmlns="http://www.w3.org/2000/svg">
<path d="M25.6329 0C11.478 0 0 11.476 0 25.6329C0 36.9583 7.34458 46.5665 17.5294 49.956C18.8104 50.1932 19.2808 49.3999 19.2808 48.7228C19.2808 48.1117 19.2569 46.0923 19.246 43.9505C12.1147 45.5011 10.61 40.9261 10.61 40.9261C9.44398 37.9633 7.76394 37.1756 7.76394 37.1756C5.43837 35.5846 7.93924 35.6172 7.93924 35.6172C10.5133 35.7981 11.8687 38.2588 11.8687 38.2588C14.1548 42.1776 17.8651 41.0445 19.3278 40.3898C19.5578 38.7328 20.2222 37.6022 20.9552 36.9621C15.2619 36.3138 9.27672 34.1159 9.27672 24.2942C9.27672 21.4958 10.2781 19.209 11.9179 17.414C11.6517 16.7683 10.7744 14.1612 12.1662 10.6305C12.1662 10.6305 14.3187 9.94154 19.2171 13.258C21.2616 12.6899 23.4544 12.4052 25.6329 12.3956C27.8113 12.4052 30.0057 12.6899 32.0543 13.258C36.9469 9.94154 39.0963 10.6305 39.0963 10.6305C40.4915 14.1612 39.6138 16.7683 39.3476 17.414C40.9911 19.209 41.9856 21.4956 41.9856 24.2942C41.9856 34.1392 35.9891 36.3072 30.2814 36.9416C31.2007 37.7371 32.0199 39.2971 32.0199 41.6884C32.0199 45.1181 31.9902 47.8785 31.9902 48.7228C31.9902 49.4049 32.4515 50.2043 33.751 49.9526C43.9302 46.5593 51.2655 36.9545 51.2655 25.6329C51.2655 11.476 39.7891 0 25.6329 0Z" fill="#E6E6E6"/>
</svg>
