<svg width="15" height="13" viewBox="0 0 15 13" fill="none" xmlns="http://www.w3.org/2000/svg">
<path d="M14.8911 1.84784C14.5279 2.3641 14.0888 2.81444 13.5908 3.18146C13.5908 3.31633 13.5908 3.45119 13.5908 3.59354C13.5948 6.0426 12.6766 8.39093 11.0421 10.1121C9.40753 11.8332 7.1934 12.7832 4.89603 12.7491C3.56787 12.7538 2.25672 12.4307 1.06528 11.8051C1.00104 11.7752 0.959601 11.7075 0.959845 11.6328V11.5503C0.959845 11.4428 1.04167 11.3555 1.1426 11.3555C2.44815 11.3097 3.70712 10.8274 4.74139 9.97697C3.55969 9.95161 2.49646 9.20577 2.00715 8.05894C1.98244 7.9963 1.99013 7.92446 2.02746 7.86937C2.06478 7.81428 2.12635 7.7839 2.1899 7.78922C2.54905 7.82768 2.91178 7.79207 3.25829 7.68433C1.95379 7.39582 0.973605 6.24199 0.833325 4.82977C0.828339 4.76202 0.856835 4.6964 0.908517 4.65661C0.9602 4.61683 1.0276 4.60862 1.08637 4.63497C1.43644 4.79954 1.81434 4.88622 2.19693 4.8897C1.05388 4.09038 0.560155 2.57004 0.994989 1.18852C1.03987 1.05427 1.14771 0.955101 1.27887 0.927447C1.41003 0.899793 1.54517 0.947735 1.63462 1.05366C3.1771 2.80271 5.29649 3.84497 7.54592 3.96066C7.4883 3.7157 7.45996 3.46397 7.46158 3.21143C7.48261 1.88727 8.25162 0.707675 9.40857 0.224895C10.5655 -0.257884 11.8814 0.0516954 12.7403 1.0087C13.3257 0.889879 13.8917 0.680373 14.4202 0.386842C14.4589 0.36109 14.508 0.36109 14.5467 0.386842C14.5709 0.428108 14.5709 0.480437 14.5467 0.521703C14.2907 1.14626 13.8582 1.6701 13.3096 2.02016C13.79 1.9608 14.262 1.84006 14.7154 1.66053C14.7536 1.63285 14.8037 1.63285 14.8419 1.66053C14.8739 1.67612 14.8978 1.70593 14.9073 1.74202C14.9168 1.77811 14.9109 1.81682 14.8911 1.84784Z" fill="white"/>
</svg>
