<svg width="54" height="54" viewBox="0 0 54 54" fill="none" xmlns="http://www.w3.org/2000/svg">
<g clip-path="url(#clip0_245_269)">
<path d="M26.6177 0C11.9137 0 0 11.9137 0 26.6177C0 41.3217 11.9137 53.2353 26.6177 53.2353C41.3217 53.2353 53.2353 41.3217 53.2353 26.6177C53.2353 11.9137 41.3163 0 26.6177 0ZM22.9363 24.9317H30.9552C32.7372 24.9317 34.1884 26.3829 34.1884 28.1649V31.3821C34.1884 33.1641 32.7372 34.6152 30.9552 34.6152H27.7007V38.7928C27.7007 39.5984 27.0498 40.2546 26.2389 40.2546C25.4279 40.2546 24.777 39.5984 24.777 38.7928V34.6152H20.4501C19.6445 34.6152 18.9882 33.959 18.9882 33.1534C18.9882 32.3478 19.6445 31.6915 20.4501 31.6915H30.9499C31.126 31.6915 31.2647 31.5528 31.2647 31.3767V28.1596C31.2647 27.9835 31.1206 27.8448 30.9499 27.8448H22.931C21.149 27.8448 19.6978 26.3936 19.6978 24.6116V21.7732C19.6978 19.9913 21.149 18.5401 22.931 18.5401H24.777V14.4426C24.777 13.637 25.4279 12.9807 26.2389 12.9807C27.0498 12.9807 27.7007 13.637 27.7007 14.4426V18.5401H32.7799C33.5855 18.5401 34.2418 19.1963 34.2418 20.0019C34.2418 20.8076 33.5855 21.4638 32.7799 21.4638H22.931C22.7549 21.4638 22.6162 21.6025 22.6162 21.7786V24.6169C22.6162 24.793 22.7603 24.9317 22.931 24.9317H22.9363Z" fill="url(#paint0_linear_245_269)"/>
</g>
<defs>
<linearGradient id="paint0_linear_245_269" x1="6.22626" y1="9.50745" x2="47.0037" y2="43.7225" gradientUnits="userSpaceOnUse">
<stop stop-color="#28ABE1"/>
<stop offset="0.49" stop-color="#FF729F"/>
<stop offset="0.58" stop-color="#FC7686"/>
<stop offset="0.79" stop-color="#F78147"/>
<stop offset="1" stop-color="#F18F01"/>
</linearGradient>
<clipPath id="clip0_245_269">
<rect width="53.23" height="53.23" fill="white"/>
</clipPath>
</defs>
</svg>
