<?xml version="1.0" encoding="UTF-8" standalone="no"?>
<!-- Created with Inkscape (http://www.inkscape.org/) -->

<svg
   width="30"
   height="30"
   viewBox="0 0 7.9374998 7.9375"
   version="1.1"
   id="svg5"
   xml:space="preserve"
   inkscape:export-filename="Workflow Automation.svg"
   inkscape:export-xdpi="96"
   inkscape:export-ydpi="96"
   xmlns:inkscape="http://www.inkscape.org/namespaces/inkscape"
   xmlns:sodipodi="http://sodipodi.sourceforge.net/DTD/sodipodi-0.dtd"
   xmlns="http://www.w3.org/2000/svg"
   xmlns:svg="http://www.w3.org/2000/svg"><sodipodi:namedview
     id="namedview7"
     pagecolor="#ffffff"
     bordercolor="#000000"
     borderopacity="0.25"
     inkscape:showpageshadow="2"
     inkscape:pageopacity="0.0"
     inkscape:pagecheckerboard="0"
     inkscape:deskcolor="#d1d1d1"
     inkscape:document-units="mm"
     showgrid="false" /><defs
     id="defs2"><linearGradient
       id="paint0_linear_242_113"
       x1="3.2455001"
       y1="6.34343"
       x2="41.182598"
       y2="38.2197"
       gradientUnits="userSpaceOnUse"><stop
         stop-color="#28ABE1"
         id="stop2136" /><stop
         offset="0.5"
         stop-color="#FF729F"
         id="stop2138" /><stop
         offset="0.59"
         stop-color="#FC7686"
         id="stop2140" /><stop
         offset="0.79"
         stop-color="#F78147"
         id="stop2142" /><stop
         offset="1"
         stop-color="#F18F01"
         id="stop2144" /></linearGradient></defs><g
     inkscape:label="Calque 1"
     inkscape:groupmode="layer"
     id="layer1"><g
       style="fill:none"
       id="g2160"
       transform="matrix(0.0873526,0,0,0.0873526,1.9570819,1.653905)"><path
         d="M 45.7104,10.7127 C 45.5915,9.56098 44.8417,8.57454 43.7661,8.14071 L 24.1367,0.228534 c -0.755,-0.3047119 -1.5979,-0.3047119 -2.3529,0 L 2.22163,8.13554 C 1.15121,8.56937 0.396234,9.55581 0.272128,10.7024 -0.477678,17.5919 -1.33091,41.5815 22.2027,52.8559 c 0.3878,0.1859 0.8377,0.1911 1.2255,0.0206 L 24.0488,52.608 C 48.1977,41.4576 46.4447,17.6849 45.7104,10.7127 Z M 33.5946,20.4118 21.4942,31.0509 c -0.3412,0.2995 -0.7704,0.4493 -1.1945,0.4493 -0.424,0 -0.8584,-0.1498 -1.1997,-0.4545 l -5.8485,-5.1749 c -0.7498,-0.6611 -0.817,-1.8024 -0.1551,-2.5513 0.6619,-0.7489 1.8047,-0.816 2.5545,-0.155 l 4.654,4.1162 10.9006,-9.5855 c 0.7498,-0.661 1.8927,-0.5887 2.5546,0.1601 0.6618,0.7489 0.5895,1.8903 -0.1604,2.5513 z"
         fill="url(#paint0_linear_242_113)"
         id="path2134"
         style="fill:url(#paint0_linear_242_113)" /></g></g></svg>
