<?xml version="1.0" encoding="UTF-8" standalone="no"?>
<!-- Created with Inkscape (http://www.inkscape.org/) -->

<svg
   width="30"
   height="30"
   viewBox="0 0 7.9374998 7.9375"
   version="1.1"
   id="svg5"
   xml:space="preserve"
   inkscape:export-filename="CI Optimizer.svg"
   inkscape:export-xdpi="96"
   inkscape:export-ydpi="96"
   xmlns:inkscape="http://www.inkscape.org/namespaces/inkscape"
   xmlns:sodipodi="http://sodipodi.sourceforge.net/DTD/sodipodi-0.dtd"
   xmlns="http://www.w3.org/2000/svg"
   xmlns:svg="http://www.w3.org/2000/svg"><sodipodi:namedview
     id="namedview7"
     pagecolor="#ffffff"
     bordercolor="#000000"
     borderopacity="0.25"
     inkscape:showpageshadow="2"
     inkscape:pageopacity="0.0"
     inkscape:pagecheckerboard="0"
     inkscape:deskcolor="#d1d1d1"
     inkscape:document-units="mm"
     showgrid="false" /><defs
     id="defs2"><linearGradient
       id="paint0_linear_162_1269"
       x1="0.45030701"
       y1="4.6424999"
       x2="52.457199"
       y2="48.131802"
       gradientUnits="userSpaceOnUse"><stop
         stop-color="#28ABE1"
         id="stop600" /><stop
         offset="0.49"
         stop-color="#FF729F"
         id="stop602" /><stop
         offset="0.58"
         stop-color="#FC7686"
         id="stop604" /><stop
         offset="0.79"
         stop-color="#F78147"
         id="stop606" /><stop
         offset="1"
         stop-color="#F18F01"
         id="stop608" /></linearGradient></defs><g
     inkscape:label="Calque 1"
     inkscape:groupmode="layer"
     id="layer1"><g
       style="fill:none"
       id="g640"
       transform="matrix(0.08185864,0,0,0.08185864,1.8087092,1.8017103)"><path
         d="M 44.6457,0 H 8.12332 C 3.63801,0 0,3.6498 0,8.14965 V 44.7963 c 0,4.4998 3.63801,8.1496 8.12332,8.1496 H 44.6516 c 4.4853,0 8.1233,-3.6498 8.1233,-8.1496 V 8.14965 C 52.7749,3.6498 49.1369,0 44.6516,0 Z M 38.7502,21.7146 24.8854,33.9598 c -0.391,0.3448 -0.8828,0.5172 -1.3687,0.5172 -0.4858,0 -0.9835,-0.1724 -1.3746,-0.5231 l -6.7013,-5.9562 c -0.8591,-0.7609 -0.9361,-2.0746 -0.1777,-2.9365 0.7584,-0.8619 2.0678,-0.9392 2.927,-0.1783 l 5.3326,4.7376 12.4901,-11.0326 c 0.8591,-0.7609 2.1686,-0.6777 2.927,0.1842 0.7584,0.8619 0.6755,2.1756 -0.1837,2.9365 z"
         fill="url(#paint0_linear_162_1269)"
         id="path596"
         style="fill:url(#paint0_linear_162_1269)"
         clip-path="url(#clipPath633)" /></g></g></svg>
