<?xml version="1.0" encoding="UTF-8" standalone="no"?>
<!-- Created with Inkscape (http://www.inkscape.org/) -->

<svg
   width="30"
   height="30"
   viewBox="0 0 7.9374998 7.9375"
   version="1.1"
   id="svg5"
   xml:space="preserve"
   inkscape:export-filename="Developers/Documentation.svg"
   inkscape:export-xdpi="96"
   inkscape:export-ydpi="96"
   sodipodi:docname="CI Optimizer New.svg"
   xmlns:inkscape="http://www.inkscape.org/namespaces/inkscape"
   xmlns:sodipodi="http://sodipodi.sourceforge.net/DTD/sodipodi-0.dtd"
   xmlns="http://www.w3.org/2000/svg"
   xmlns:svg="http://www.w3.org/2000/svg"><sodipodi:namedview
     id="namedview7"
     pagecolor="#ffffff"
     bordercolor="#000000"
     borderopacity="0.25"
     inkscape:showpageshadow="2"
     inkscape:pageopacity="0.0"
     inkscape:pagecheckerboard="0"
     inkscape:deskcolor="#d1d1d1"
     inkscape:document-units="mm"
     showgrid="false" /><defs
     id="defs2"><linearGradient
       id="paint0_linear_162_1165"
       x1="21.5926"
       y1="22.0555"
       x2="25.7616"
       y2="25.541599"
       gradientUnits="userSpaceOnUse"><stop
         stop-color="#28ABE1"
         id="stop51422" /><stop
         offset="0.49"
         stop-color="#FF729F"
         id="stop51424" /><stop
         offset="0.58"
         stop-color="#FC7686"
         id="stop51426" /><stop
         offset="0.79"
         stop-color="#F78147"
         id="stop51428" /><stop
         offset="1"
         stop-color="#F18F01"
         id="stop51430" /></linearGradient><linearGradient
       id="paint1_linear_162_1165"
       x1="22.0313"
       y1="3.2931099"
       x2="25.363701"
       y2="6.0824099"
       gradientUnits="userSpaceOnUse"><stop
         stop-color="#28ABE1"
         id="stop51433" /><stop
         offset="0.49"
         stop-color="#FF729F"
         id="stop51435" /><stop
         offset="0.58"
         stop-color="#FC7686"
         id="stop51437" /><stop
         offset="0.79"
         stop-color="#F78147"
         id="stop51439" /><stop
         offset="1"
         stop-color="#F18F01"
         id="stop51441" /></linearGradient><linearGradient
       id="paint2_linear_162_1165"
       x1="4.8845201"
       y1="13.3041"
       x2="8.2209196"
       y2="16.093399"
       gradientUnits="userSpaceOnUse"><stop
         stop-color="#28ABE1"
         id="stop51444" /><stop
         offset="0.49"
         stop-color="#FF729F"
         id="stop51446" /><stop
         offset="0.58"
         stop-color="#FC7686"
         id="stop51448" /><stop
         offset="0.79"
         stop-color="#F78147"
         id="stop51450" /><stop
         offset="1"
         stop-color="#F18F01"
         id="stop51452" /></linearGradient><linearGradient
       id="paint3_linear_162_1165"
       x1="4.9197502"
       y1="33.221802"
       x2="8.2561398"
       y2="36.011101"
       gradientUnits="userSpaceOnUse"><stop
         stop-color="#28ABE1"
         id="stop51455" /><stop
         offset="0.49"
         stop-color="#FF729F"
         id="stop51457" /><stop
         offset="0.58"
         stop-color="#FC7686"
         id="stop51459" /><stop
         offset="0.79"
         stop-color="#F78147"
         id="stop51461" /><stop
         offset="1"
         stop-color="#F18F01"
         id="stop51463" /></linearGradient><linearGradient
       id="paint4_linear_162_1165"
       x1="22.1527"
       y1="43.126598"
       x2="25.487101"
       y2="45.915901"
       gradientUnits="userSpaceOnUse"><stop
         stop-color="#28ABE1"
         id="stop51466" /><stop
         offset="0.49"
         stop-color="#FF729F"
         id="stop51468" /><stop
         offset="0.58"
         stop-color="#FC7686"
         id="stop51470" /><stop
         offset="0.79"
         stop-color="#F78147"
         id="stop51472" /><stop
         offset="1"
         stop-color="#F18F01"
         id="stop51474" /></linearGradient><linearGradient
       id="paint5_linear_162_1165"
       x1="3.7955"
       y1="9.6784"
       x2="43.9422"
       y2="43.2575"
       gradientUnits="userSpaceOnUse"><stop
         stop-color="#28ABE1"
         id="stop51477" /><stop
         offset="0.49"
         stop-color="#FF729F"
         id="stop51479" /><stop
         offset="0.58"
         stop-color="#FC7686"
         id="stop51481" /><stop
         offset="0.79"
         stop-color="#F78147"
         id="stop51483" /><stop
         offset="1"
         stop-color="#F18F01"
         id="stop51485" /></linearGradient><linearGradient
       id="paint6_linear_162_1165"
       x1="39.2798"
       y1="33.117599"
       x2="42.6143"
       y2="35.9049"
       gradientUnits="userSpaceOnUse"><stop
         stop-color="#28ABE1"
         id="stop51488" /><stop
         offset="0.49"
         stop-color="#FF729F"
         id="stop51490" /><stop
         offset="0.58"
         stop-color="#FC7686"
         id="stop51492" /><stop
         offset="0.79"
         stop-color="#F78147"
         id="stop51494" /><stop
         offset="1"
         stop-color="#F18F01"
         id="stop51496" /></linearGradient><linearGradient
       id="paint7_linear_162_1165"
       x1="39.268101"
       y1="13.1979"
       x2="42.602501"
       y2="15.9872"
       gradientUnits="userSpaceOnUse"><stop
         stop-color="#28ABE1"
         id="stop51499" /><stop
         offset="0.49"
         stop-color="#FF729F"
         id="stop51501" /><stop
         offset="0.58"
         stop-color="#FC7686"
         id="stop51503" /><stop
         offset="0.79"
         stop-color="#F78147"
         id="stop51505" /><stop
         offset="1"
         stop-color="#F18F01"
         id="stop51507" /></linearGradient><clipPath
       id="clip0_162_1165"><rect
         width="47.6348"
         height="53.062901"
         fill="#ffffff"
         id="rect51510"
         x="0"
         y="0" /></clipPath></defs><g
     inkscape:label="Calque 1"
     inkscape:groupmode="layer"
     id="layer1"><g
       style="fill:none"
       id="g51578"
       transform="matrix(0.09230239,0,0,0.09230239,1.770347,1.5198337)"><g
         clip-path="url(#clip0_162_1165)"
         id="g51420"><path
           d="m 23.6725,21.0809 c -1.4963,0 -2.7145,1.2222 -2.7145,2.7233 0,1.5012 1.2182,2.7233 2.7145,2.7233 1.4963,0 2.7145,-1.2221 2.7145,-2.7233 0,-1.5011 -1.2182,-2.7233 -2.7145,-2.7233 z m 0,4.3404 c -0.8892,0 -1.6119,-0.725 -1.6119,-1.6171 0,-0.892 0.7227,-1.6171 1.6119,-1.6171 0.8892,0 1.6119,0.7251 1.6119,1.6171 0,0.8921 -0.7227,1.6171 -1.6119,1.6171 z"
           fill="url(#paint0_linear_162_1165)"
           id="path51404"
           style="fill:url(#paint0_linear_162_1165)" /><path
           d="m 23.6921,6.87111 c 1.1966,0 2.1719,-0.97653 2.1719,-2.17902 0,-1.2025 -0.9733,-2.17903 -2.1719,-2.17903 -1.1986,0 -2.172,0.97653 -2.172,2.17903 0,1.20249 0.9734,2.17902 2.172,2.17902 z m 0,-3.24987 c 0.5895,0 1.0693,0.48139 1.0693,1.07281 0,0.59142 -0.4798,1.07281 -1.0693,1.07281 -0.5895,0 -1.0694,-0.48139 -1.0694,-1.07281 0,-0.59142 0.4799,-1.07281 1.0694,-1.07281 z"
           fill="url(#paint1_linear_162_1165)"
           id="path51406"
           style="fill:url(#paint1_linear_162_1165)" /><path
           d="M 6.56884,12.526 H 6.54926 c -0.57189,0 -1.11244,0.222 -1.52176,0.6248 -0.41325,0.4087 -0.64435,0.953 -0.65023,1.5346 -0.00979,1.2005 0.95379,2.1869 2.1524,2.1986 h 0.01959 c 0.57188,0 1.11243,-0.222 1.52176,-0.6248 0.41324,-0.4087 0.64434,-0.9529 0.65022,-1.5345 0.00979,-1.2006 -0.95379,-2.1869 -2.1524,-2.1987 z m 0.72857,2.9434 C 7.09372,15.6698 6.82149,15.7798 6.53946,15.7759 5.94995,15.77 5.47404,15.2847 5.47991,14.6932 5.48187,14.4064 5.59546,14.1391 5.79915,13.9387 6.00087,13.7403 6.26527,13.6322 6.5473,13.6322 h 0.00979 c 0.58951,0.0059 1.06543,0.4912 1.05955,1.0826 -0.00196,0.2869 -0.11555,0.5541 -0.31923,0.7546 z"
           fill="url(#paint2_linear_162_1165)"
           id="path51408"
           style="fill:url(#paint2_linear_162_1165)" /><path
           d="M 6.58252,32.4437 H 6.57077 c -0.57972,0.004 -1.12418,0.2319 -1.53155,0.6465 -0.40737,0.4145 -0.63064,0.9627 -0.62868,1.5443 0.00587,1.1966 0.97925,2.1673 2.17002,2.1673 H 6.59231 C 7.17203,36.7978 7.7165,36.5699 8.12386,36.1553 8.53123,35.7408 8.7545,35.1926 8.75255,34.611 8.74667,33.4144 7.77329,32.4437 6.58056,32.4437 Z m 0.7599,2.9316 C 7.14069,35.5796 6.87434,35.6916 6.5884,35.6936 6.00672,35.6975 5.51709,35.2181 5.51317,34.6267 c 0,-0.2869 0.10772,-0.5561 0.30945,-0.7604 0.20173,-0.2044 0.46808,-0.3164 0.75402,-0.3183 h 0.00588 c 0.58755,0 1.06543,0.4774 1.06934,1.0669 0,0.2869 -0.10771,0.556 -0.30944,0.7604 z"
           fill="url(#paint3_linear_162_1165)"
           id="path51410"
           style="fill:url(#paint3_linear_162_1165)" /><path
           d="m 21.6454,44.5256 c 0,1.2005 0.9734,2.179 2.172,2.179 1.1986,0 2.172,-0.9765 2.172,-2.179 0,-1.2025 -0.9734,-2.179 -2.172,-2.179 -1.1986,0 -2.172,0.9765 -2.172,2.179 z m 3.2394,0 c 0,0.5914 -0.4798,1.0728 -1.0693,1.0728 -0.5895,0 -1.0694,-0.4814 -1.0694,-1.0728 0,-0.5914 0.4799,-1.0728 1.0694,-1.0728 0.5895,0 1.0693,0.4814 1.0693,1.0728 z"
           fill="url(#paint4_linear_162_1165)"
           id="path51412"
           style="fill:url(#paint4_linear_162_1165)" /><path
           d="m 45.6194,31.6769 c -1.2671,-1.228 -2.9358,-1.8804 -4.6965,-1.8548 -1.7607,0.0314 -3.4039,0.7486 -4.6279,2.0199 -0.2468,0.2573 -0.4701,0.5324 -0.6698,0.8193 l -4.1677,-2.4128 c 0.5856,-1.1672 0.9185,-2.4836 0.9185,-3.8767 0,-1.3931 -0.3055,-2.6054 -0.848,-3.7391 l 4.0384,-2.3402 c 1.1829,1.7016 3.1395,2.8255 5.3585,2.8432 0.0176,0 0.0352,0 0.0529,0 3.6114,0 6.5649,-2.9335 6.5923,-6.5626 0.0294,-3.6468 -2.9064,-6.63927 -6.5414,-6.66875 -3.635,-0.03143 -6.6178,2.91585 -6.6472,6.56265 -0.0078,1.0256 0.2174,1.9982 0.6287,2.8687 l -4.0267,2.3322 C 29.5381,19.4398 27.1017,17.919 24.305,17.7402 v -4.5369 c 3.3784,-0.2829 6.042,-3.13 6.042,-6.59008 0,-3.64873 -2.9574,-6.61566141 -6.5943,-6.61566141 -3.637,0 -6.5943,2.96693141 -6.5943,6.61566141 0,3.64878 2.6636,6.30918 6.042,6.59008 v 4.5369 c -2.8183,0.1788 -5.2723,1.7232 -6.7118,3.9788 L 12.5579,19.4418 C 12.9574,18.589 13.1748,17.6537 13.1826,16.6831 13.2159,13.0363 10.284,10.0419 6.64905,10.0085 4.88835,9.98884 3.22558,10.6648 1.96821,11.9046 0.716728,13.1444 0.0155826,14.8008 -8.5422e-5,16.5672 -0.03338,20.2139 2.89851,23.2084 6.53349,23.2418 c 0.01959,0 0.04113,0 0.06072,0 1.73915,0 3.37647,-0.672 4.61819,-1.8961 0.2977,-0.2928 0.5621,-0.6091 0.7951,-0.9451 l 3.9484,2.2871 c -0.5269,1.118 -0.8226,2.3657 -0.8226,3.6821 0,1.4599 0.3643,2.8353 1.0028,4.0417 l -4.0659,2.3559 C 11.8411,32.4393 11.5825,32.1288 11.2927,31.84 10.049,30.6061 8.40387,29.9262 6.65492,29.9262 H 6.61967 c -1.7607,0.0098 -3.41368,0.7054 -4.65341,1.9609 -1.239739,1.2556 -1.9134657,2.9237 -1.9056317,4.6902 0.0097925,1.7664 0.7031037,3.4247 1.9545917,4.6684 1.24365,1.234 2.8888,1.9138 4.63774,1.9138 h 0.03526 c 1.7607,-0.0098 3.41368,-0.7054 4.65338,-1.9609 1.2398,-1.2556 1.9155,-2.9217 1.9076,-4.6882 -0.0059,-0.9784 -0.2213,-1.9235 -0.6247,-2.7842 l 4.0932,-2.3696 c 1.4846,2.1064 3.8818,3.5191 6.61,3.6547 v 4.8492 c -3.3784,0.283 -6.042,3.13 -6.042,6.5901 0,3.6488 2.9573,6.6157 6.5943,6.6157 3.6369,0 6.5943,-2.9669 6.5943,-6.6157 0,-3.6487 -2.6636,-6.3091 -6.042,-6.5901 v -4.8669 c 2.691,-0.2103 5.0392,-1.6623 6.4729,-3.7883 l 4.1696,2.4148 c -0.425,0.9058 -0.6443,1.904 -0.6247,2.9355 0.0313,1.7664 0.7461,3.415 2.0133,4.643 1.2378,1.1986 2.8594,1.8548 4.577,1.8548 0.0392,0 0.0803,0 0.1195,0 1.7607,-0.0314 3.4039,-0.7486 4.628,-2.0199 1.224,-1.2712 1.8801,-2.9453 1.8488,-4.7117 -0.0313,-1.7664 -0.7462,-3.4149 -2.0134,-4.6429 z m -4.6847,-9.6474 c -1.3455,-0.0099 -2.5755,-0.5089 -3.5253,-1.3263 0.5973,-1.3872 1.9722,-2.2969 3.492,-2.2851 1.5609,0.0118 2.9319,0.9765 3.4881,2.4207 -0.9479,0.7564 -2.1485,1.2044 -3.4529,1.1907 z m 0.0431,-11.0189 c 0.0137,0 0.0293,0 0.045,0 3.0279,0.0235 5.4721,2.515 5.4486,5.5526 -0.0098,1.3067 -0.4759,2.5033 -1.2417,3.4444 -0.8089,-1.6249 -2.4619,-2.68 -4.3185,-2.6957 -0.0137,0 -0.0255,0 -0.0392,0 -1.7901,0 -3.4215,0.9883 -4.2695,2.5287 -0.7071,-0.9352 -1.1242,-2.1024 -1.1144,-3.3658 0.0235,-3.0239 2.4834,-5.4662 5.4916,-5.4662 z M 6.54525,22.1356 C 5.19975,22.1238 3.96981,21.6227 3.02189,20.8054 3.61728,19.43 4.97452,18.5242 6.48257,18.5242 c 0.01175,0 0.02351,0 0.0333,0 1.56093,0.0137 2.93188,0.9785 3.48423,2.4246 -0.9793,0.78 -2.18574,1.2005 -3.45485,1.1868 z m 4.29695,-2.016 c -0.8069,-1.6269 -2.45792,-2.684 -4.31654,-2.6997 -0.01567,0 -0.02938,0 -0.04504,0 -1.78812,0 -3.4176,0.9864 -4.26563,2.5249 C 1.50797,19.0075 1.09276,17.8404 1.10451,16.579 1.11822,15.1073 1.70186,13.7299 2.7477,12.6984 c 1.03409,-1.0198 2.39917,-1.5798 3.84651,-1.5798 0.01763,0 0.03329,0 0.05092,0 3.02785,0.0275 5.47007,2.5209 5.44267,5.5586 -0.0117,1.2732 -0.4504,2.4738 -1.2456,3.4424 z M 6.68626,42.0533 C 5.37993,42.0651 4.13628,41.6092 3.14332,40.7761 3.72108,39.3811 5.0842,38.4517 6.60596,38.4439 h 0.01959 c 1.55309,0 2.92796,0.9431 3.49985,2.3735 -0.96946,0.7938 -2.16807,1.23 -3.43718,1.2359 z M 10.9538,39.9765 C 10.1234,38.3613 8.45479,37.3239 6.60008,37.3377 4.79434,37.3475 3.15703,38.3613 2.32466,39.9273 1.58043,38.9724 1.17306,37.8053 1.16718,36.5733 1.15935,35.1016 1.7234,33.7145 2.75553,32.6692 3.78767,31.6239 5.16254,31.0423 6.62946,31.0344 h 0.02938 c 1.45517,0 2.82613,0.5659 3.86216,1.5935 1.0419,1.0355 1.6217,2.4148 1.6295,3.8865 0.0059,1.2732 -0.4152,2.4796 -1.1967,3.4601 z M 23.7547,12.1246 c -1.3455,0 -2.5794,-0.4892 -3.5352,-1.2987 0.5856,-1.39115 1.9527,-2.31266 3.4725,-2.31266 1.5198,0 2.9377,0.95099 3.5057,2.38926 -0.942,0.7624 -2.1406,1.2221 -3.443,1.2221 z M 18.263,6.61519 c 0,-3.03767 2.4638,-5.50945 5.4917,-5.50945 3.0278,0 5.4916,2.47178 5.4916,5.50945 0,1.30663 -0.4563,2.50519 -1.2162,3.45221 -0.8226,-1.61704 -2.4815,-2.65841 -4.3381,-2.65841 -1.8567,0 -3.447,1.00404 -4.2872,2.56413 C 18.69,9.04375 18.263,7.87859 18.263,6.61715 Z m 0.5503,25.43311 c 0.7815,-1.9963 2.7087,-3.3265 4.8591,-3.3265 2.1504,0 4.1462,1.3734 4.9002,3.4365 -1.3063,1.0944 -2.9848,1.7566 -4.816,1.7566 -1.8312,0 -3.6193,-0.7054 -4.9413,-1.8666 z m 1.5296,18.6111 c 0.5856,-1.3912 1.9527,-2.3127 3.4725,-2.3127 1.5198,0 2.9377,0.951 3.5057,2.3893 -0.9421,0.7624 -2.1407,1.2221 -3.4431,1.2221 -1.3024,0 -2.5793,-0.4892 -3.5351,-1.2987 z m 9.0268,-4.2107 c 0,1.3066 -0.4563,2.5052 -1.2162,3.4503 -0.8226,-1.6171 -2.4815,-2.6585 -4.3381,-2.6585 -1.8567,0 -3.447,1.0041 -4.2872,2.5642 -0.7149,-0.9294 -1.1418,-2.0946 -1.1418,-3.356 0,-3.0377 2.4638,-5.5095 5.4916,-5.5095 3.0279,0 5.4917,2.4718 5.4917,5.5095 z m 0.049,-15.1255 c -1.0185,-2.2438 -3.2433,-3.7076 -5.7483,-3.7076 -2.5049,0 -4.6416,1.4146 -5.6894,3.5819 -1.089,-1.3086 -1.7451,-2.9925 -1.7451,-4.8257 0,-4.1596 3.3726,-7.5431 7.5188,-7.5431 4.1461,0 7.5187,3.3835 7.5187,7.5431 0,1.8941 -0.7012,3.6252 -1.8547,4.9514 z m 11.7177,10.622 c -1.3102,0.0216 -2.5559,-0.4126 -3.5586,-1.2339 0.5621,-1.4029 1.9115,-2.348 3.4333,-2.3755 1.5609,-0.0255 2.9573,0.8999 3.5488,2.3303 -0.9597,0.8056 -2.1544,1.2556 -3.4215,1.2791 z m 4.2402,-2.1299 c -0.8363,-1.5777 -2.4756,-2.5857 -4.299,-2.5857 -0.0293,0 -0.0587,0 -0.0881,0 -1.8057,0.0314 -3.4293,1.0669 -4.2441,2.6427 -0.756,-0.9451 -1.177,-2.1063 -1.1986,-3.3383 -0.0254,-1.4716 0.521,-2.8647 1.5394,-3.9238 1.0184,-1.059 2.3874,-1.6564 3.8544,-1.6819 1.4669,-0.0255 2.8555,0.5226 3.9111,1.5444 1.0556,1.0217 1.651,2.3951 1.6765,3.8668 0.0215,1.2732 -0.3839,2.4855 -1.1536,3.4758 z"
           fill="url(#paint5_linear_162_1165)"
           id="path51414"
           style="fill:url(#paint5_linear_162_1165)" /><path
           d="m 40.9054,32.3375 c -1.1967,0.0216 -2.1544,1.0159 -2.1328,2.2164 0.0098,0.5816 0.2448,1.1239 0.6619,1.5286 0.4074,0.395 0.9421,0.6111 1.5061,0.6111 0.0137,0 0.0255,0 0.0392,0 1.1967,-0.0216 2.1544,-1.0158 2.1328,-2.2164 -0.0215,-1.2005 -1.0145,-2.1574 -2.2092,-2.1397 z m 0.0568,3.2499 c -0.282,0.0059 -0.5562,-0.1022 -0.7619,-0.3006 -0.2056,-0.1985 -0.3212,-0.4657 -0.327,-0.7526 -0.0098,-0.5914 0.4602,-1.0806 1.0497,-1.0905 0.0059,0 0.0118,0 0.0196,0 0.5797,0 1.0576,0.4677 1.0693,1.0532 0.0098,0.5914 -0.4602,1.0807 -1.0497,1.0905 z"
           fill="url(#paint6_linear_162_1165)"
           id="path51416"
           style="fill:url(#paint6_linear_162_1165)" /><path
           d="m 40.9132,16.7759 h 0.0176 c 1.1888,0 2.1622,-0.9667 2.1701,-2.1614 0.0097,-1.2005 -0.9578,-2.1849 -2.1544,-2.1947 h -0.0176 c -0.5739,0 -1.1144,0.222 -1.5218,0.6248 -0.4132,0.4087 -0.6443,0.953 -0.6483,1.5346 -0.0039,0.5816 0.2174,1.1298 0.6228,1.5463 0.4074,0.4146 0.9499,0.6465 1.5296,0.6504 z m -0.7325,-2.9434 c 0.2017,-0.1984 0.4681,-0.3085 0.7501,-0.3085 h 0.0079 c 0.5895,0.004 1.0654,0.4893 1.0595,1.0807 -0.0039,0.5914 -0.4896,1.0728 -1.0772,1.063 -0.2859,-0.002 -0.5523,-0.1159 -0.754,-0.3203 -0.2017,-0.2043 -0.3094,-0.4735 -0.3075,-0.7604 0.002,-0.2868 0.1156,-0.5541 0.3193,-0.7564 z"
           fill="url(#paint7_linear_162_1165)"
           id="path51418"
           style="fill:url(#paint7_linear_162_1165)" /></g></g></g></svg>
