<?xml version="1.0" encoding="UTF-8" standalone="no"?>
<!-- Created with Inkscape (http://www.inkscape.org/) -->

<svg
   width="30"
   height="30"
   viewBox="0 0 7.9374998 7.9375"
   version="1.1"
   id="svg5"
   xml:space="preserve"
   inkscape:export-filename="../../workflow scheme 2.svg"
   inkscape:export-xdpi="96"
   inkscape:export-ydpi="96"
   sodipodi:docname="CI Optimizer New.svg"
   xmlns:inkscape="http://www.inkscape.org/namespaces/inkscape"
   xmlns:sodipodi="http://sodipodi.sourceforge.net/DTD/sodipodi-0.dtd"
   xmlns="http://www.w3.org/2000/svg"
   xmlns:svg="http://www.w3.org/2000/svg"><sodipodi:namedview
     id="namedview7"
     pagecolor="#ffffff"
     bordercolor="#000000"
     borderopacity="0.25"
     inkscape:showpageshadow="2"
     inkscape:pageopacity="0.0"
     inkscape:pagecheckerboard="0"
     inkscape:deskcolor="#d1d1d1"
     inkscape:document-units="mm"
     showgrid="false" /><defs
     id="defs2"><linearGradient
       id="paint0_linear_162_1223"
       x1="14.5533"
       y1="7.9995799"
       x2="23.234699"
       y2="15.2598"
       gradientUnits="userSpaceOnUse"><stop
         stop-color="#28ABE1"
         id="stop55703" /><stop
         offset="0.49"
         stop-color="#FF729F"
         id="stop55705" /><stop
         offset="0.58"
         stop-color="#FC7686"
         id="stop55707" /><stop
         offset="0.79"
         stop-color="#F78147"
         id="stop55709" /><stop
         offset="1"
         stop-color="#F18F01"
         id="stop55711" /></linearGradient><linearGradient
       id="paint1_linear_162_1223"
       x1="-0.99436998"
       y1="7.3380098"
       x2="37.758801"
       y2="39.749401"
       gradientUnits="userSpaceOnUse"><stop
         stop-color="#28ABE1"
         id="stop55714" /><stop
         offset="0.49"
         stop-color="#FF729F"
         id="stop55716" /><stop
         offset="0.58"
         stop-color="#FC7686"
         id="stop55718" /><stop
         offset="0.79"
         stop-color="#F78147"
         id="stop55720" /><stop
         offset="1"
         stop-color="#F18F01"
         id="stop55722" /></linearGradient><clipPath
       id="clip0_162_1223"><rect
         width="37.285999"
         height="55"
         fill="#ffffff"
         transform="translate(0.239502)"
         id="rect55725"
         x="0"
         y="0" /></clipPath></defs><g
     inkscape:label="Calque 1"
     inkscape:groupmode="layer"
     id="layer1"><g
       style="fill:none"
       id="g55753"
       transform="matrix(0.09138535,0,0,0.09138535,2.2431047,1.4561098)"><g
         clip-path="url(#clip0_162_1223)"
         id="g55701"><path
           d="m 18.885,17.3124 c 3.1207,0 5.6506,-2.538 5.6506,-5.6689 0,-3.13083 -2.5299,-5.66889 -5.6506,-5.66889 -3.1208,0 -5.6506,2.53806 -5.6506,5.66889 0,3.1309 2.5298,5.6689 5.6506,5.6689 z"
           fill="url(#paint0_linear_162_1223)"
           id="path55693"
           style="fill:url(#paint0_linear_162_1223)" /><path
           d="m 18.885,33.1013 c 3.1207,0 5.6506,-2.5381 5.6506,-5.669 0,-3.1308 -2.5299,-5.6689 -5.6506,-5.6689 -3.1208,0 -5.6506,2.5381 -5.6506,5.6689 0,3.1309 2.5298,5.669 5.6506,5.669 z"
           fill="#28abe1"
           id="path55695" /><path
           d="m 18.885,48.895 c 3.1207,0 5.6506,-2.5381 5.6506,-5.669 0,-3.1308 -2.5299,-5.6689 -5.6506,-5.6689 -3.1208,0 -5.6506,2.5381 -5.6506,5.6689 0,3.1309 2.5298,5.669 5.6506,5.669 z"
           fill="#f18f01"
           id="path55697" /><path
           d="m 35.1225,26.3998 c 0.8893,-0.2005 1.4239,-0.6716 1.7337,-1.0776 1.0691,-1.4085 0.5495,-3.4385 0.4896,-3.6691 -0.1299,-0.4661 -0.5496,-0.7869 -1.0292,-0.7869 H 30.651 V 14.25 c 2.9277,-0.4461 4.1318,-2.2556 4.4765,-3.7041 0.8893,-0.2005 1.4239,-0.67166 1.7337,-1.07766 C 37.9303,8.05978 37.4107,6.0298 37.3508,5.80425 37.2209,5.3381 36.8012,5.01732 36.3216,5.01732 H 28.6975 C 26.6491,1.98988 23.1968,0 19.2898,0 15.3829,0 11.8856,2.01495 9.84719,5.06744 9.74227,5.03235 9.63236,5.0123 9.51745,5.0123 H 1.44873 c -0.479628,0 -0.904297,0.32079 -1.0292,0.78693 -0.059954,0.22556 -0.579549,2.25554 0.489619,3.664 0.309761,0.41101 0.844341,0.87717 1.733651,1.07767 0.37471,1.5788 1.76363,3.5788 5.28589,3.7893 v 6.526 H 1.44873 c -0.479628,0 -0.904297,0.3208 -1.0292,0.7869 -0.059954,0.2256 -0.579549,2.2556 0.489619,3.669 0.309761,0.411 0.844341,0.8772 1.733651,1.0777 0.37471,1.5789 1.76363,3.5788 5.28589,3.7893 v 6.1801 H 1.44873 c -0.479628,0 -0.904297,0.3208 -1.0292,0.787 -0.059954,0.2255 -0.579549,2.2555 0.489619,3.669 0.309761,0.411 0.844341,0.8771 1.733651,1.0776 0.3797,1.5939 1.7936,3.6289 5.41079,3.7994 0.01499,0 0.03497,0 0.04996,0 0.00999,0 0.01499,0 0.01998,0 0.98424,5.2829 5.61567,9.2978 11.16127,9.2978 5.5457,0 10.2171,-4.045 11.1764,-9.363 3.0626,-0.396 4.3066,-2.2555 4.6613,-3.7342 0.8893,-0.2005 1.4239,-0.6716 1.7337,-1.0776 1.0691,-1.4085 0.5495,-3.4385 0.4896,-3.669 -0.1299,-0.4662 -0.5496,-0.787 -1.0292,-0.787 H 30.651 v -6.2703 c 2.9277,-0.4461 4.1318,-2.2556 4.4765,-3.7041 z m 0.2598,-3.3883 c 0.005,0.3759 -0.0449,0.7669 -0.2298,1.0125 -0.0649,0.0802 -0.2548,0.3308 -0.9842,0.3308 -0.2898,0 -0.5646,0.1153 -0.7644,0.3208 -0.1999,0.2055 -0.3098,0.4862 -0.3048,0.7719 0,0.0902 0,1.9447 -2.4531,2.476 v -4.912 z m 0,-15.85393 c 0.005,0.37592 -0.0449,0.76688 -0.2298,1.01248 -0.0649,0.0802 -0.2548,0.33081 -0.9842,0.33081 -0.5896,0 -1.0642,0.49121 -1.0692,1.08266 0,0.36089 -0.1449,2.00488 -2.4531,2.49108 V 11.398 c 0,-1.4987 -0.2948,-2.92721 -0.8194,-4.24043 z M 4.66123,9.59355 C 4.66622,9.30283 4.55631,9.02716 4.35647,8.82165 4.15662,8.61615 3.88184,8.50086 3.59206,8.50086 2.86263,8.50086 2.67278,8.25025 2.60783,8.17005 2.42297,7.92946 2.36801,7.53349 2.37801,7.15757 H 8.74305 C 8.21846,8.47079 7.92369,9.8993 7.92369,11.398 v 0.7869 C 4.84109,11.9493 4.66123,9.98451 4.66123,9.59856 Z m 0,15.85395 C 4.66622,25.1567 4.55631,24.8811 4.35647,24.6756 4.15662,24.4701 3.88184,24.3548 3.59206,24.3548 2.86263,24.3548 2.67278,24.1042 2.60783,24.024 2.42297,23.7834 2.36801,23.3874 2.37801,23.0115 h 5.55068 v 5.0273 C 4.84609,27.8032 4.66622,25.8384 4.66622,25.4525 Z m 0,15.508 C 4.66622,40.6648 4.55631,40.3891 4.35647,40.1836 4.15662,39.9781 3.88184,39.8628 3.59206,39.8628 2.86263,39.8628 2.67278,39.6122 2.60783,39.532 2.42297,39.2914 2.36801,38.8955 2.37801,38.5195 h 5.55068 v 5.0274 C 4.84609,43.3113 4.66622,41.3465 4.66622,40.9605 Z M 28.5027,43.607 c 0,5.1026 -4.1368,9.2477 -9.2179,9.2477 -5.081,0 -9.2178,-4.1502 -9.2178,-9.2477 V 11.398 c 0,-5.10255 4.1368,-9.24772 9.2178,-9.24772 5.0811,0 9.2179,4.15018 9.2179,9.24772 z m 6.8746,-5.0875 c 0.005,0.376 -0.0449,0.7669 -0.2298,1.0125 -0.0649,0.0802 -0.2548,0.3308 -0.9842,0.3308 -0.2898,0 -0.5646,0.1153 -0.7644,0.3208 -0.1999,0.2055 -0.3098,0.4862 -0.3048,0.7719 0,0.0902 0,1.9448 -2.4531,2.4761 v -4.9121 z"
           fill="url(#paint1_linear_162_1223)"
           id="path55699"
           style="fill:url(#paint1_linear_162_1223)" /></g></g></g></svg>
