<?xml version="1.0" encoding="UTF-8" standalone="no"?>
<!-- Created with Inkscape (http://www.inkscape.org/) -->

<svg
   width="60.117996"
   height="63.991062"
   viewBox="0 0 15.90622 16.930969"
   version="1.1"
   id="svg5"
   xml:space="preserve"
   inkscape:export-filename="Thumbnail Pull Request Management.jpg"
   inkscape:export-xdpi="96"
   inkscape:export-ydpi="96"
   inkscape:version="1.2.1 (9c6d41e, 2022-07-14)"
   sodipodi:docname="document de travial.svg"
   xmlns:inkscape="http://www.inkscape.org/namespaces/inkscape"
   xmlns:sodipodi="http://sodipodi.sourceforge.net/DTD/sodipodi-0.dtd"
   xmlns="http://www.w3.org/2000/svg"
   xmlns:svg="http://www.w3.org/2000/svg"><sodipodi:namedview
     id="namedview7"
     pagecolor="#ffffff"
     bordercolor="#000000"
     borderopacity="0.25"
     inkscape:showpageshadow="2"
     inkscape:pageopacity="0.0"
     inkscape:pagecheckerboard="0"
     inkscape:deskcolor="#d1d1d1"
     inkscape:document-units="mm"
     showgrid="false"
     inkscape:zoom="0.32"
     inkscape:cx="-1668.75"
     inkscape:cy="-50"
     inkscape:window-width="1440"
     inkscape:window-height="900"
     inkscape:window-x="0"
     inkscape:window-y="180"
     inkscape:window-maximized="0"
     inkscape:current-layer="svg5" /><defs
     id="defs2"><mask
       id="A"
       height="69"
       width="64.6"
       y="0"
       x=".1"
       maskUnits="userSpaceOnUse"><g
         filter="url(#E)"
         id="g13485"><path
           d="M 64.8,0 H 0.1 v 69 h 64.7 z"
           fill="#ffffff"
           id="path13483" /></g></mask><filter
       height="69"
       width="64.599998"
       y="0"
       x="0.1"
       filterUnits="userSpaceOnUse"
       id="E"><feColorMatrix
         values="1 0 0 0 0 0 1 0 0 0 0 0 1 0 0 0 0 0 1 0"
         id="feColorMatrix13500" /></filter></defs><g
     inkscape:label="Calque 1"
     inkscape:groupmode="layer"
     id="layer1"
     transform="translate(445.20063,726.47191)"><g
       fill="#5c2d90"
       id="g13511"
       transform="matrix(0.26458333,0,0,0.26458333,-445.71446,-726.47195)"
       style="fill:#ffffff;fill-opacity:1;stroke:none"><path
         d="M 57.705,33.717 59.28,53.817 31.4,58.82 29,38.72 32.983,38.164 c 0.648,0.278 1.112,0.37 1.853,0.556 1.204,0.278 2.594,0.648 4.63,-0.463 0.463,-0.278 1.482,-1.112 1.853,-1.667 z m -43.073,23.9 c -0.463,-0.74 -1.297,-1.575 -2.594,-2.594 -1.853,-1.482 -1.204,-4.076 -0.093,-5.65 1.4,-2.686 8.707,-6.206 8.337,-10.56 -0.185,-1.575 -0.37,-3.613 -1.853,-5.095 -0.093,0.556 0,1.112 0,1.112 0,0 -0.648,-0.74 -0.926,-1.853 -0.278,-0.37 -0.556,-0.556 -0.834,-1.112 -0.185,0.648 -0.185,1.297 -0.185,1.297 0,0 -0.463,-1.204 -0.556,-2.13 -0.278,0.463 -0.37,1.297 -0.37,1.297 0,0 -0.648,-1.853 -0.463,-2.87 -0.278,-0.834 -1.204,-2.594 -0.926,-6.484 1.575,1.112 5.095,0.834 6.484,-1.204 0.463,-0.648 0.74,-2.5 -0.185,-6.114 -0.648,-2.316 -2.223,-5.743 -2.87,-7.04 L 17.505,8.71 c 0.37,1.02 1.02,3.242 1.297,4.354 0.74,3.242 1.02,4.354 0.648,5.836 -0.278,1.297 -1.02,2.13 -2.964,3.057 -1.853,0.926 -4.446,-1.4 -4.54,-1.482 -1.853,-1.482 -3.242,-3.9 -3.427,-5.002 -0.185,-1.297 0.74,-2.038 1.204,-3.057 -0.648,0.185 -1.4,0.556 -1.4,0.556 0,0 0.834,-0.926 1.945,-1.667 a 9.43,9.43 0 0 0 1.204,-0.834 H 10.28 c 0,0 1.112,-0.648 2.316,-1.02 H 10.93 l 4.446,-1.945 c 1.4,-0.556 2.686,-0.37 3.427,0.648 1.02,1.4 2.038,2.13 4.168,2.686 1.297,-0.556 1.76,-0.926 3.427,-1.4 1.482,-1.667 2.686,-1.853 2.686,-1.853 0,0 -0.834,0.74 -0.926,1.575 0.834,-0.648 1.76,-1.204 1.76,-1.204 0,0 -0.37,0.463 -0.648,1.112 l 0.093,0.093 c 1.02,-0.556 2.13,-1.02 2.13,-1.02 0,0 -0.37,0.37 -0.74,0.926 0.74,0 2.223,0 2.78,0.093 3.427,0.093 4.168,-3.613 5.465,-4.168 1.667,-0.556 2.408,-0.926 5.187,1.853 2.408,2.408 4.26,6.577 3.335,7.503 -0.74,0.74 -2.316,-0.278 -4.076,-2.408 -0.926,-1.112 -1.575,-2.5 -1.945,-4.168 -0.185,-1.4 -1.204,-2.223 -1.204,-2.223 0,0 0.648,1.4 0.648,2.594 0,0.648 0.093,3.057 1.112,4.446 -0.093,0.185 -0.185,1.02 -0.278,1.112 -1.204,-1.482 -3.9,-2.5 -4.26,-2.87 1.482,1.204 4.817,3.9 6.114,6.484 1.204,2.5 0.463,4.724 1.112,5.28 0.185,0.185 2.594,3.15 3.057,4.724 0.834,2.686 0.093,5.465 -1.02,7.132 l -2.964,0.463 a 3.92,3.92 0 0 1 -1.112,-0.371 c 0.185,-0.37 0.648,-1.297 0.648,-1.482 l -0.185,-0.278 c -0.926,1.297 -2.5,2.594 -3.798,3.335 -1.667,0.926 -3.613,0.834 -4.9,0.37 -3.613,-1.112 -7.04,-3.52 -7.78,-4.168 0,0 0,0.463 0.093,0.648 a 28.07,28.07 0 0 0 5.002,4.168 l -4.26,0.463 2.038,15.747 c -0.926,0.093 -1.02,0.185 -2.038,0.37 -0.834,-3.057 -2.5,-5.002 -4.354,-6.206 -1.575,-1.02 -3.798,-1.297 -5.928,-0.834 l -0.093,0.185 c 1.482,-0.185 3.242,0.093 5.002,1.204 1.76,1.111 3.15,3.983 3.705,5.65 0.648,2.223 1.112,4.54 -0.648,7.04 -1.297,1.76 -5.002,2.78 -7.966,0.648 0.834,1.297 1.853,2.316 3.335,2.5 2.13,0.278 4.168,-0.093 5.65,-1.482 1.204,-1.204 1.853,-3.798 1.667,-6.577 l 1.945,-0.278 0.648,4.9 L 62.06,56.7 59.28,31.505 57.705,31.783 54.556,0 1.942,6.114 8.426,58.542 Z"
         mask="url(#A)"
         id="path13505"
         style="fill:#ffffff;fill-opacity:1;stroke:none" /><path
         d="m 39.665,30.06 c 1.4,1.02 2.594,1.667 3.798,1.575 0.74,-0.093 1.482,-1.297 1.945,-2.408 0.37,-0.74 0.37,-1.575 -0.185,-1.853 -0.278,-0.093 -1.4,-0.093 -2.223,0 -1.575,0.185 -3.15,0.74 -3.52,1.02 -0.556,0.37 -0.278,1.297 0.185,1.667 m 0.37,-10.84 v 0.093 l 0.093,0.185 c 0.37,0.74 0.74,1.482 1.482,1.853 0.185,0 0.37,-0.093 0.556,-0.093 0.648,0 1.02,0.093 1.297,0.185 v -0.556 c -0.093,-0.926 0.185,-2.594 -1.667,-3.52 -0.74,-0.37 -1.667,-0.185 -2.038,0.185 h 0.185 c 0.463,0.185 0.185,0.37 0.093,0.556 -0.093,0.37 -0.185,0.463 0,1.112"
         id="path13507"
         style="fill:#ffffff;fill-opacity:1;stroke:none" /><path
         d="m 31.698,19.407 c 0.463,-0.37 -2.13,-0.926 -4.168,0.37 -1.482,1.02 -1.482,3.15 -0.093,4.354 a 1.27,1.27 0 0 1 0.37,0.278 c 0.37,-0.185 0.926,-0.37 1.4,-0.556 0.926,-0.278 1.667,-0.463 2.316,-0.556 0.278,-0.37 0.648,-0.926 0.556,-1.945 -0.093,-1.4 -1.204,-1.112 -0.37,-1.945 m 15.098,22.5 -4.446,7.4 -5.187,-1.575 -4.54,6.947 0.185,2.223 24.825,-4.54 -1.482,-15.47 -4.076,8.522 z"
         id="path13509"
         style="fill:#ffffff;fill-opacity:1;stroke:none" /></g></g></svg>
