<svg width="47" height="53" viewBox="0 0 47 53" fill="none" xmlns="http://www.w3.org/2000/svg">
<path d="M45.7104 10.7127C45.5915 9.56098 44.8417 8.57454 43.7661 8.14071L24.1367 0.228534C23.3817 -0.0761779 22.5388 -0.0761779 21.7838 0.228534L2.22163 8.13554C1.15121 8.56937 0.396234 9.55581 0.272128 10.7024C-0.477678 17.5919 -1.33091 41.5815 22.2027 52.8559C22.5905 53.0418 23.0404 53.047 23.4282 52.8765L24.0488 52.608C48.1977 41.4576 46.4447 17.6849 45.7104 10.7127V10.7127ZM33.5946 20.4118L21.4942 31.0509C21.153 31.3504 20.7238 31.5002 20.2997 31.5002C19.8757 31.5002 19.4413 31.3504 19.1 31.0457L13.2515 25.8708C12.5017 25.2097 12.4345 24.0684 13.0964 23.3195C13.7583 22.5706 14.9011 22.5035 15.6509 23.1645L20.3049 27.2807L31.2055 17.6952C31.9553 17.0342 33.0982 17.1065 33.7601 17.8553C34.4219 18.6042 34.3496 19.7456 33.5997 20.4066L33.5946 20.4118Z" fill="url(#paint0_linear_242_113)"/>
<defs>
<linearGradient id="paint0_linear_242_113" x1="3.2455" y1="6.34343" x2="41.1826" y2="38.2197" gradientUnits="userSpaceOnUse">
<stop stop-color="#28ABE1"/>
<stop offset="0.5" stop-color="#FF729F"/>
<stop offset="0.59" stop-color="#FC7686"/>
<stop offset="0.79" stop-color="#F78147"/>
<stop offset="1" stop-color="#F18F01"/>
</linearGradient>
</defs>
</svg>
