<svg width="51" height="51" viewBox="0 0 51 51" fill="none" xmlns="http://www.w3.org/2000/svg">
<g clip-path="url(#clip0_162_1266)">
<path d="M25.7387 -0.000100538C11.7869 -0.130329 0.369083 11.111 0.239276 25.1079C0.109468 39.1048 11.3145 50.5597 25.2662 50.6899C39.2179 50.8201 50.6357 39.5788 50.7655 25.5819C50.8953 11.585 39.6904 0.130128 25.7387 -0.000100538ZM33.0079 14.898C34.8511 14.9136 36.3309 16.4295 36.3154 18.2787C36.2998 20.128 34.7888 21.6126 32.9456 21.5969C31.1023 21.5813 29.6225 20.0655 29.6381 18.2162C29.6536 16.367 31.1646 14.8824 33.0079 14.898ZM18.1891 14.7574C20.0323 14.773 21.5121 16.2888 21.4965 18.1381C21.481 19.9873 19.97 21.4719 18.1267 21.4563C16.2835 21.4407 14.8037 19.9248 14.8193 18.0756C14.8348 16.2263 16.3458 14.7417 18.1891 14.7574ZM38.1379 28.598C37.0527 34.6771 31.7306 39.2611 25.37 39.1986C19.0198 39.1413 13.7912 34.4687 12.8098 28.3896C12.6385 27.327 13.6302 26.4466 14.6687 26.7175L16.7508 27.2645C22.2079 28.6918 27.9298 28.7855 33.4285 27.5405L36.3309 26.8842C37.3694 26.6498 38.3248 27.5458 38.1379 28.598Z" fill="url(#paint0_linear_162_1266)"/>
</g>
<defs>
<linearGradient id="paint0_linear_162_1266" x1="6.14811" y1="9.05336" x2="44.9601" y2="41.5128" gradientUnits="userSpaceOnUse">
<stop stop-color="#28ABE1"/>
<stop offset="0.49" stop-color="#FF729F"/>
<stop offset="0.58" stop-color="#FC7686"/>
<stop offset="0.79" stop-color="#F78147"/>
<stop offset="1" stop-color="#F18F01"/>
</linearGradient>
<clipPath id="clip0_162_1266">
<rect width="50.5263" height="50.69" fill="white" transform="translate(0.239502)"/>
</clipPath>
</defs>
</svg>
