<?xml version="1.0" encoding="UTF-8" standalone="no"?>
<!-- Created with Inkscape (http://www.inkscape.org/) -->

<svg
   width="30"
   height="30"
   viewBox="0 0 7.9374998 7.9375"
   version="1.1"
   id="svg5"
   xml:space="preserve"
   inkscape:export-filename="Developers/Community Slack.svg"
   inkscape:export-xdpi="96"
   inkscape:export-ydpi="96"
   sodipodi:docname="CI Optimizer New.svg"
   xmlns:inkscape="http://www.inkscape.org/namespaces/inkscape"
   xmlns:sodipodi="http://sodipodi.sourceforge.net/DTD/sodipodi-0.dtd"
   xmlns="http://www.w3.org/2000/svg"
   xmlns:svg="http://www.w3.org/2000/svg"><sodipodi:namedview
     id="namedview7"
     pagecolor="#ffffff"
     bordercolor="#000000"
     borderopacity="0.25"
     inkscape:showpageshadow="2"
     inkscape:pageopacity="0.0"
     inkscape:pagecheckerboard="0"
     inkscape:deskcolor="#d1d1d1"
     inkscape:document-units="mm"
     showgrid="false" /><defs
     id="defs2"><linearGradient
       id="paint0_linear_162_1241"
       x1="0.239439"
       y1="25.677401"
       x2="51.958698"
       y2="25.677401"
       gradientUnits="userSpaceOnUse"><stop
         stop-color="#28ABE1"
         id="stop53786" /><stop
         offset="0.49"
         stop-color="#FF729F"
         id="stop53788" /><stop
         offset="0.58"
         stop-color="#FC7686"
         id="stop53790" /><stop
         offset="0.79"
         stop-color="#F78147"
         id="stop53792" /><stop
         offset="1"
         stop-color="#F18F01"
         id="stop53794" /></linearGradient></defs><g
     inkscape:label="Calque 1"
     inkscape:groupmode="layer"
     id="layer1"><g
       style="fill:none"
       id="g53826"
       transform="matrix(0.09290264,0,0,0.09290264,1.5440838,1.5836041)"><path
         d="m 50.7985,20.1285 -3.7307,-2.5136 3.8207,-2.6139 c 0.6751,-0.4566 1.0752,-1.2142 1.0702,-2.0319 -0.005,-0.8178 -0.4201,-1.5704 -1.1052,-2.0169 L 34.6356,0.456414 c -0.7952,-0.5117442 -1.8204,-0.5167613 -2.6255,0 L 26.7192,3.92323 21.5032,0.41126 C 20.6881,-0.135604 19.6329,-0.140621 18.8328,0.396209 L 1.7197,11.5392 c -0.68012,0.4565 -1.08019,1.2191 -1.075189,2.0369 0.010002,0.8178 0.420079,1.5704 1.110199,2.0169 l 3.58564,2.3279 -4.00071,2.619 c -0.680126,0.4465 -1.090199,1.199 -1.100201,2.0168 -0.010002,0.8228 0.39507,1.5804 1.075191,2.037 l 4.90588,3.2862 0.15502,9.2114 c 0,1.2292 0.64512,2.373 1.69531,3.0052 l 16.03286,10.7266 0.075,0.0501 c 0.5401,0.3161 1.1502,0.4767 1.7603,0.4767 0.6101,0 1.1952,-0.1506 1.7303,-0.4566 L 43.9172,40.0664 c 1.0602,-0.6322 1.7203,-1.7811 1.7153,-3.0002 l 0.1251,-9.4924 5.0058,-3.3915 c 0.6852,-0.4415 1.1002,-1.1991 1.1052,-2.0169 0.005,-0.8178 -0.395,-1.5804 -1.0701,-2.0319 z M 33.3253,3.19073 48.483,13.0042 44.3773,15.8087 29.4246,5.74444 Z M 41.7068,17.635 26.4741,28.0505 10.8513,17.9059 26.6992,7.53052 41.7118,17.635 Z M 4.14013,13.5561 20.153,3.13053 23.9887,5.71433 8.09584,16.1248 Z M 8.10084,19.712 23.7836,29.8917 19.2428,32.9973 3.71506,22.5818 8.10084,19.707 Z M 9.69112,37.5779 9.61611,37.5278 C 9.46108,37.4374 9.36607,37.2719 9.36607,37.0712 l -0.12002,-7.1544 8.65655,5.8048 c 0.4051,0.2709 0.8701,0.4114 1.3402,0.4114 0.4701,0 0.9452,-0.1405 1.3603,-0.4164 l 3.5706,-2.4433 V 47.2659 L 9.69613,37.5779 Z M 42.627,37.0411 c 0,0.1806 -0.095,0.3462 -0.25,0.4365 L 27.1742,47.6121 V 32.0942 l 4.7559,3.0855 c 0.3951,0.2509 0.8451,0.3813 1.2952,0.3813 0.4501,0 0.9302,-0.1354 1.3453,-0.4013 l 8.1564,-5.5339 z m -9.4017,-4.6057 -4.0157,-2.6089 15.1827,-10.3854 4.0107,2.6992 z"
         fill="url(#paint0_linear_162_1241)"
         id="path53782"
         style="fill:url(#paint0_linear_162_1241)"
         clip-path="url(#clipPath53819)" /></g></g></svg>
