<?xml version="1.0" encoding="UTF-8" standalone="no"?>
<!-- Created with Inkscape (http://www.inkscape.org/) -->

<svg
   width="30"
   height="30"
   viewBox="0 0 7.9374998 7.9375"
   version="1.1"
   id="svg5"
   xml:space="preserve"
   inkscape:export-filename="Developers/Service Status.svg"
   inkscape:export-xdpi="96"
   inkscape:export-ydpi="96"
   sodipodi:docname="CI Optimizer New.svg"
   xmlns:inkscape="http://www.inkscape.org/namespaces/inkscape"
   xmlns:sodipodi="http://sodipodi.sourceforge.net/DTD/sodipodi-0.dtd"
   xmlns="http://www.w3.org/2000/svg"
   xmlns:svg="http://www.w3.org/2000/svg"><sodipodi:namedview
     id="namedview7"
     pagecolor="#ffffff"
     bordercolor="#000000"
     borderopacity="0.25"
     inkscape:showpageshadow="2"
     inkscape:pageopacity="0.0"
     inkscape:pagecheckerboard="0"
     inkscape:deskcolor="#d1d1d1"
     inkscape:document-units="mm"
     showgrid="false" /><defs
     id="defs2"><linearGradient
       id="paint0_linear_162_1194"
       x1="6.1150498"
       y1="37.4562"
       x2="55.285198"
       y2="37.4562"
       gradientUnits="userSpaceOnUse"><stop
         stop-color="#28ABE1"
         id="stop52985" /><stop
         offset="0.49"
         stop-color="#FF729F"
         id="stop52987" /><stop
         offset="0.58"
         stop-color="#FC7686"
         id="stop52989" /><stop
         offset="0.79"
         stop-color="#F78147"
         id="stop52991" /><stop
         offset="1"
         stop-color="#F18F01"
         id="stop52993" /></linearGradient><linearGradient
       id="paint1_linear_162_1194"
       x1="9.8364296"
       y1="18.5459"
       x2="51.563702"
       y2="18.5459"
       gradientUnits="userSpaceOnUse"><stop
         stop-color="#28ABE1"
         id="stop52996" /><stop
         offset="0.49"
         stop-color="#FF729F"
         id="stop52998" /><stop
         offset="0.58"
         stop-color="#FC7686"
         id="stop53000" /><stop
         offset="0.79"
         stop-color="#F78147"
         id="stop53002" /><stop
         offset="1"
         stop-color="#F18F01"
         id="stop53004" /></linearGradient><linearGradient
       id="paint2_linear_162_1194"
       x1="12.7208"
       y1="10.7755"
       x2="48.679401"
       y2="10.7755"
       gradientUnits="userSpaceOnUse"><stop
         stop-color="#28ABE1"
         id="stop53007" /><stop
         offset="0.49"
         stop-color="#FF729F"
         id="stop53009" /><stop
         offset="0.58"
         stop-color="#FC7686"
         id="stop53011" /><stop
         offset="0.79"
         stop-color="#F78147"
         id="stop53013" /><stop
         offset="1"
         stop-color="#F18F01"
         id="stop53015" /></linearGradient><linearGradient
       id="paint3_linear_162_1194"
       x1="15.4387"
       y1="4.19384"
       x2="45.961399"
       y2="4.19384"
       gradientUnits="userSpaceOnUse"><stop
         stop-color="#28ABE1"
         id="stop53018" /><stop
         offset="0.49"
         stop-color="#FF729F"
         id="stop53020" /><stop
         offset="0.58"
         stop-color="#FC7686"
         id="stop53022" /><stop
         offset="0.79"
         stop-color="#F78147"
         id="stop53024" /><stop
         offset="1"
         stop-color="#F18F01"
         id="stop53026" /></linearGradient><linearGradient
       id="paint4_linear_162_1194"
       x1="27.8636"
       y1="29.427799"
       x2="49.425701"
       y2="29.427799"
       gradientUnits="userSpaceOnUse"><stop
         stop-color="#28ABE1"
         id="stop53029" /><stop
         offset="0.49"
         stop-color="#FF729F"
         id="stop53031" /><stop
         offset="0.58"
         stop-color="#FC7686"
         id="stop53033" /><stop
         offset="0.79"
         stop-color="#F78147"
         id="stop53035" /><stop
         offset="1"
         stop-color="#F18F01"
         id="stop53037" /></linearGradient><linearGradient
       id="paint5_linear_162_1194"
       x1="27.8636"
       y1="35.270699"
       x2="49.425701"
       y2="35.270699"
       gradientUnits="userSpaceOnUse"><stop
         stop-color="#28ABE1"
         id="stop53040" /><stop
         offset="0.49"
         stop-color="#FF729F"
         id="stop53042" /><stop
         offset="0.58"
         stop-color="#FC7686"
         id="stop53044" /><stop
         offset="0.79"
         stop-color="#F78147"
         id="stop53046" /><stop
         offset="1"
         stop-color="#F18F01"
         id="stop53048" /></linearGradient><linearGradient
       id="paint6_linear_162_1194"
       x1="11.9997"
       y1="41.032902"
       x2="49.425701"
       y2="41.032902"
       gradientUnits="userSpaceOnUse"><stop
         stop-color="#28ABE1"
         id="stop53051" /><stop
         offset="0.49"
         stop-color="#FF729F"
         id="stop53053" /><stop
         offset="0.58"
         stop-color="#FC7686"
         id="stop53055" /><stop
         offset="0.79"
         stop-color="#F78147"
         id="stop53057" /><stop
         offset="1"
         stop-color="#F18F01"
         id="stop53059" /></linearGradient><linearGradient
       id="paint7_linear_162_1194"
       x1="11.9997"
       y1="46.718899"
       x2="49.425701"
       y2="46.718899"
       gradientUnits="userSpaceOnUse"><stop
         stop-color="#28ABE1"
         id="stop53062" /><stop
         offset="0.49"
         stop-color="#FF729F"
         id="stop53064" /><stop
         offset="0.58"
         stop-color="#FC7686"
         id="stop53066" /><stop
         offset="0.79"
         stop-color="#F78147"
         id="stop53068" /><stop
         offset="1"
         stop-color="#F18F01"
         id="stop53070" /></linearGradient><linearGradient
       id="paint8_linear_162_1194"
       x1="12.9376"
       y1="32.6199"
       x2="21.847799"
       y2="32.6199"
       gradientUnits="userSpaceOnUse"><stop
         stop-color="#28ABE1"
         id="stop53073" /><stop
         offset="0.49"
         stop-color="#FF729F"
         id="stop53075" /><stop
         offset="0.58"
         stop-color="#FC7686"
         id="stop53077" /><stop
         offset="0.79"
         stop-color="#F78147"
         id="stop53079" /><stop
         offset="1"
         stop-color="#F18F01"
         id="stop53081" /></linearGradient><linearGradient
       id="paint9_linear_162_1194"
       x1="0.99682599"
       y1="52.147202"
       x2="59.5159"
       y2="52.147202"
       gradientUnits="userSpaceOnUse"><stop
         stop-color="#28ABE1"
         id="stop53084" /><stop
         offset="0.49"
         stop-color="#FF729F"
         id="stop53086" /><stop
         offset="0.58"
         stop-color="#FC7686"
         id="stop53088" /><stop
         offset="0.79"
         stop-color="#F78147"
         id="stop53090" /><stop
         offset="1"
         stop-color="#F18F01"
         id="stop53092" /></linearGradient><clipPath
       id="clip0_162_1194"><rect
         width="58.519001"
         height="53.240002"
         fill="#ffffff"
         transform="translate(0.996826)"
         id="rect53095"
         x="0"
         y="0" /></clipPath></defs><g
     inkscape:label="Calque 1"
     inkscape:groupmode="layer"
     id="layer1"><g
       style="fill:none"
       id="g53177"
       transform="matrix(0.08517077,0,0,0.08517077,1.3917954,1.7015084)"><g
         clip-path="url(#clip0_162_1194)"
         id="g52983"><path
           d="M 52.6479,53.1236 H 8.75232 c -1.45731,0 -2.63727,-1.1888 -2.63727,-2.6458 V 24.4446 c 0,-1.462 1.18501,-2.6458 2.63727,-2.6458 H 52.6479 c 1.4573,0 2.6373,1.1889 2.6373,2.6458 v 26.0332 c 0,1.462 -1.185,2.6458 -2.6373,2.6458 z M 8.75232,23.9792 c -0.24709,0 -0.45888,0.2125 -0.45888,0.4604 v 26.0331 c 0,0.2479 0.21179,0.4604 0.45888,0.4604 H 52.6479 c 0.2471,0 0.4589,-0.2125 0.4589,-0.4604 V 24.4396 c 0,-0.2479 -0.2118,-0.4604 -0.4589,-0.4604 z"
           fill="url(#paint0_linear_162_1194)"
           id="path52963"
           style="fill:url(#paint0_linear_162_1194)" /><path
           d="m 10.9256,23.5947 c -0.6,0 -1.08917,-0.4907 -1.08917,-1.0927 v -6.354 c 0,-1.462 1.18497,-2.6458 2.63727,-2.6458 h 36.4477 c 1.4573,0 2.6373,1.1888 2.6373,2.6458 v 6.2629 c 0,0.6021 -0.4892,1.0928 -1.0892,1.0928 -0.6001,0 -1.0892,-0.4907 -1.0892,-1.0928 V 16.148 c 0,-0.2479 -0.2118,-0.4604 -0.4589,-0.4604 H 12.4737 c -0.2471,0 -0.4589,0.2125 -0.4589,0.4604 v 6.354 c 0,0.602 -0.4891,1.0927 -1.0892,1.0927 z"
           fill="url(#paint1_linear_162_1194)"
           id="path52965"
           style="fill:url(#paint1_linear_162_1194)" /><path
           d="m 13.81,15.2981 c -0.6,0 -1.0892,-0.4907 -1.0892,-1.0927 V 8.89862 c 0,-1.46203 1.0842,-2.64581 2.4154,-2.64581 H 46.264 c 1.3312,0 2.4154,1.18884 2.4154,2.64581 v 5.21068 c 0,0.602 -0.4891,1.0927 -1.0892,1.0927 -0.6001,0 -1.0892,-0.4907 -1.0892,-1.0927 V 8.89862 c 0,-0.29848 -0.1765,-0.46036 -0.2319,-0.46036 H 15.1362 c -0.0555,0 -0.2319,0.16188 -0.2319,0.46036 v 5.30678 c 0,0.602 -0.4892,1.0927 -1.0892,1.0927 z"
           fill="url(#paint2_linear_162_1194)"
           id="path52967"
           style="fill:url(#paint2_linear_162_1194)" /><path
           d="m 16.5279,8.39274 c -0.6,0 -1.0892,-0.49072 -1.0892,-1.09273 V 2.64581 C 15.4387,1.15849 16.4069,0 17.6373,0 h 26.1205 c 1.2354,0 2.1986,1.16355 2.1986,2.64581 v 4.55302 c 0,0.60201 -0.4892,1.09273 -1.0892,1.09273 -0.6001,0 -1.0892,-0.49072 -1.0892,-1.09273 V 2.64581 c 0,-0.24283 -0.0757,-0.39459 -0.1211,-0.46036 H 17.7432 c -0.0454,0.06577 -0.121,0.21753 -0.121,0.46036 v 4.64914 c 0,0.60201 -0.4892,1.09273 -1.0892,1.09273 z"
           fill="url(#paint3_linear_162_1194)"
           id="path52969"
           style="fill:url(#paint3_linear_162_1194)" /><path
           d="M 48.3365,30.5255 H 28.9528 c -0.6,0 -1.0892,-0.4907 -1.0892,-1.0927 0,-0.602 0.4892,-1.0927 1.0892,-1.0927 h 19.3837 c 0.6001,0 1.0892,0.4907 1.0892,1.0927 0,0.602 -0.4891,1.0927 -1.0892,1.0927 z"
           fill="url(#paint4_linear_162_1194)"
           id="path52971"
           style="fill:url(#paint4_linear_162_1194)" /><path
           d="M 48.3365,36.3634 H 28.9528 c -0.6,0 -1.0892,-0.4907 -1.0892,-1.0927 0,-0.602 0.4892,-1.0927 1.0892,-1.0927 h 19.3837 c 0.6001,0 1.0892,0.4907 1.0892,1.0927 0,0.602 -0.4891,1.0927 -1.0892,1.0927 z"
           fill="url(#paint5_linear_162_1194)"
           id="path52973"
           style="fill:url(#paint5_linear_162_1194)" /><path
           d="M 48.3365,42.1256 H 13.0889 c -0.6001,0 -1.0892,-0.4907 -1.0892,-1.0927 0,-0.602 0.4891,-1.0927 1.0892,-1.0927 h 35.2425 c 0.6001,0 1.0892,0.4907 1.0892,1.0927 0,0.602 -0.4891,1.0927 -1.0892,1.0927 z"
           fill="url(#paint6_linear_162_1194)"
           id="path52975"
           style="fill:url(#paint6_linear_162_1194)" /><path
           d="M 48.3365,47.8117 H 13.0889 c -0.6001,0 -1.0892,-0.4907 -1.0892,-1.0928 0,-0.602 0.4891,-1.0927 1.0892,-1.0927 h 35.2425 c 0.6001,0 1.0892,0.4907 1.0892,1.0927 0,0.6021 -0.4891,1.0928 -1.0892,1.0928 z"
           fill="url(#paint7_linear_162_1194)"
           id="path52977"
           style="fill:url(#paint7_linear_162_1194)" /><path
           d="m 17.3902,37.0869 c -2.4557,0 -4.4526,-2.0034 -4.4526,-4.467 0,-2.4637 1.9969,-4.4671 4.4526,-4.4671 2.4557,0 4.4526,2.0034 4.4526,4.4671 0,2.4636 -1.9969,4.467 -4.4526,4.467 z m 0,-7.2393 c -1.5228,0 -2.7633,1.2445 -2.7633,2.7723 0,1.5277 1.2405,2.7722 2.7633,2.7722 1.5229,0 2.7633,-1.2445 2.7633,-2.7722 0,-1.5278 -1.2404,-2.7723 -2.7633,-2.7723 z"
           fill="url(#paint8_linear_162_1194)"
           id="path52979"
           style="fill:url(#paint8_linear_162_1194)" /><path
           d="M 58.4267,53.2399 H 2.08602 c -0.60006,0 -1.089194,-0.4907 -1.089194,-1.0927 0,-0.602 0.489134,-1.0928 1.089194,-1.0928 H 58.4267 c 0.6,0 1.0892,0.4908 1.0892,1.0928 0,0.602 -0.4892,1.0927 -1.0892,1.0927 z"
           fill="url(#paint9_linear_162_1194)"
           id="path52981"
           style="fill:url(#paint9_linear_162_1194)" /></g></g></g></svg>
