<?xml version="1.0" encoding="UTF-8" standalone="no"?>
<!-- Created with Inkscape (http://www.inkscape.org/) -->

<svg
   width="30"
   height="30"
   viewBox="0 0 7.9374998 7.9375"
   version="1.1"
   id="svg5"
   xml:space="preserve"
   inkscape:export-filename="Developers/Community Slack.svg"
   inkscape:export-xdpi="96"
   inkscape:export-ydpi="96"
   sodipodi:docname="Integrations.svg"
   inkscape:version="1.2.1 (9c6d41e, 2022-07-14)"
   xmlns:inkscape="http://www.inkscape.org/namespaces/inkscape"
   xmlns:sodipodi="http://sodipodi.sourceforge.net/DTD/sodipodi-0.dtd"
   xmlns:xlink="http://www.w3.org/1999/xlink"
   xmlns="http://www.w3.org/2000/svg"
   xmlns:svg="http://www.w3.org/2000/svg"><sodipodi:namedview
     id="namedview7"
     pagecolor="#ffffff"
     bordercolor="#000000"
     borderopacity="0.25"
     inkscape:showpageshadow="2"
     inkscape:pageopacity="0.0"
     inkscape:pagecheckerboard="0"
     inkscape:deskcolor="#d1d1d1"
     inkscape:document-units="mm"
     showgrid="false"
     inkscape:zoom="3.9333333"
     inkscape:cx="-1.9067797"
     inkscape:cy="12.20339"
     inkscape:window-width="1440"
     inkscape:window-height="792"
     inkscape:window-x="0"
     inkscape:window-y="205"
     inkscape:window-maximized="1"
     inkscape:current-layer="layer1" /><defs
     id="defs2"><linearGradient
       id="paint0_linear_162_1241"
       x1="0.239439"
       y1="25.677401"
       x2="51.958698"
       y2="25.677401"
       gradientUnits="userSpaceOnUse"><stop
         stop-color="#28ABE1"
         id="stop53786" /><stop
         offset="0.49"
         stop-color="#FF729F"
         id="stop53788" /><stop
         offset="0.58"
         stop-color="#FC7686"
         id="stop53790" /><stop
         offset="0.79"
         stop-color="#F78147"
         id="stop53792" /><stop
         offset="1"
         stop-color="#F18F01"
         id="stop53794" /></linearGradient><linearGradient
       id="paint0_linear_162_1247"
       x1="37.2894"
       y1="12.0931"
       x2="74.0889"
       y2="42.8783"
       gradientUnits="userSpaceOnUse"
       gradientTransform="matrix(0.77950281,0,0,0.77950281,11.083637,3.2539432)"><stop
         stop-color="#28ABE1"
         id="stop33421" /><stop
         offset="0.49"
         stop-color="#FF729F"
         id="stop33423" /><stop
         offset="0.58"
         stop-color="#FC7686"
         id="stop33425" /><stop
         offset="0.79"
         stop-color="#F78147"
         id="stop33427" /><stop
         offset="1"
         stop-color="#F18F01"
         id="stop33429" /></linearGradient><linearGradient
       id="paint1_linear_162_1247"
       x1="9.34088"
       y1="12.2449"
       x2="46.1469"
       y2="43.0234"
       gradientUnits="userSpaceOnUse"
       gradientTransform="matrix(0.64301301,0,0,0.64301301,9.9930422,6.9927649)"><stop
         stop-color="#28ABE1"
         id="stop33432" /><stop
         offset="0.49"
         stop-color="#FF729F"
         id="stop33434" /><stop
         offset="0.58"
         stop-color="#FC7686"
         id="stop33436" /><stop
         offset="0.79"
         stop-color="#F78147"
         id="stop33438" /><stop
         offset="1"
         stop-color="#F18F01"
         id="stop33440" /></linearGradient><clipPath
       id="clip0_162_1247"><rect
         width="73.9026"
         height="54.8907"
         fill="white"
         transform="translate(0.239502)"
         id="rect33443" /></clipPath><linearGradient
       inkscape:collect="always"
       xlink:href="#paint0_linear_162_1247"
       id="linearGradient33928"
       x1="9.8297777"
       y1="24.652817"
       x2="69.267365"
       y2="24.652817"
       gradientUnits="userSpaceOnUse" /><linearGradient
       inkscape:collect="always"
       xlink:href="#paint0_linear_162_1247"
       id="linearGradient33930"
       gradientUnits="userSpaceOnUse"
       x1="9.8297777"
       y1="24.652817"
       x2="69.267365"
       y2="24.652817"
       gradientTransform="matrix(0.88149821,0,0,0.88149821,0.76331704,0.26591188)" /><linearGradient
       inkscape:collect="always"
       xlink:href="#paint0_linear_162_1247"
       id="linearGradient33932"
       gradientUnits="userSpaceOnUse"
       x1="9.8297777"
       y1="24.652817"
       x2="69.267365"
       y2="24.652817"
       gradientTransform="matrix(0.88149821,0,0,0.88149821,-7.0039176,0.15951141)" /><linearGradient
       inkscape:collect="always"
       xlink:href="#paint0_linear_162_1247"
       id="linearGradient33934"
       gradientUnits="userSpaceOnUse"
       x1="9.8297777"
       y1="24.652817"
       x2="69.267365"
       y2="24.652817" /></defs><g
     inkscape:label="Calque 1"
     inkscape:groupmode="layer"
     id="layer1"><g
       style="fill:none"
       id="g53826"
       transform="matrix(0.09290264,0,0,0.09290264,-30.071382,2.6598753)"><path
         d="m 50.7985,20.1285 -3.7307,-2.5136 3.8207,-2.6139 c 0.6751,-0.4566 1.0752,-1.2142 1.0702,-2.0319 -0.005,-0.8178 -0.4201,-1.5704 -1.1052,-2.0169 L 34.6356,0.456414 c -0.7952,-0.5117442 -1.8204,-0.5167613 -2.6255,0 L 26.7192,3.92323 21.5032,0.41126 C 20.6881,-0.135604 19.6329,-0.140621 18.8328,0.396209 L 1.7197,11.5392 c -0.68012,0.4565 -1.08019,1.2191 -1.075189,2.0369 0.010002,0.8178 0.420079,1.5704 1.110199,2.0169 l 3.58564,2.3279 -4.00071,2.619 c -0.680126,0.4465 -1.090199,1.199 -1.100201,2.0168 -0.010002,0.8228 0.39507,1.5804 1.075191,2.037 l 4.90588,3.2862 0.15502,9.2114 c 0,1.2292 0.64512,2.373 1.69531,3.0052 l 16.03286,10.7266 0.075,0.0501 c 0.5401,0.3161 1.1502,0.4767 1.7603,0.4767 0.6101,0 1.1952,-0.1506 1.7303,-0.4566 L 43.9172,40.0664 c 1.0602,-0.6322 1.7203,-1.7811 1.7153,-3.0002 l 0.1251,-9.4924 5.0058,-3.3915 c 0.6852,-0.4415 1.1002,-1.1991 1.1052,-2.0169 0.005,-0.8178 -0.395,-1.5804 -1.0701,-2.0319 z M 33.3253,3.19073 48.483,13.0042 44.3773,15.8087 29.4246,5.74444 Z M 41.7068,17.635 26.4741,28.0505 10.8513,17.9059 26.6992,7.53052 41.7118,17.635 Z M 4.14013,13.5561 20.153,3.13053 23.9887,5.71433 8.09584,16.1248 Z M 8.10084,19.712 23.7836,29.8917 19.2428,32.9973 3.71506,22.5818 8.10084,19.707 Z M 9.69112,37.5779 9.61611,37.5278 C 9.46108,37.4374 9.36607,37.2719 9.36607,37.0712 l -0.12002,-7.1544 8.65655,5.8048 c 0.4051,0.2709 0.8701,0.4114 1.3402,0.4114 0.4701,0 0.9452,-0.1405 1.3603,-0.4164 l 3.5706,-2.4433 V 47.2659 L 9.69613,37.5779 Z M 42.627,37.0411 c 0,0.1806 -0.095,0.3462 -0.25,0.4365 L 27.1742,47.6121 V 32.0942 l 4.7559,3.0855 c 0.3951,0.2509 0.8451,0.3813 1.2952,0.3813 0.4501,0 0.9302,-0.1354 1.3453,-0.4013 l 8.1564,-5.5339 z m -9.4017,-4.6057 -4.0157,-2.6089 15.1827,-10.3854 4.0107,2.6992 z"
         fill="url(#paint0_linear_162_1241)"
         id="path53782"
         style="fill:url(#paint0_linear_162_1241)"
         clip-path="url(#clipPath53819)" /></g><g
       style="fill:none;fill-opacity:1;stroke:url(#linearGradient33928);stroke-width:2.01999;stroke-dasharray:none;stroke-opacity:1"
       id="g33469"
       transform="matrix(0.11168037,0,0,0.11168037,0.40605434,1.7781639)"><g
         clip-path="url(#clip0_162_1247)"
         id="g33419"
         style="fill:none;fill-opacity:1;stroke:url(#linearGradient33934);stroke-width:2.01999;stroke-dasharray:none;stroke-opacity:1"><path
           d="m 60.04635,18.293658 c 0.50614,0 0.989605,0.104238 1.432461,0.290107 v -5.716513 c 0,-1.962925 -1.586103,-3.5586344 -3.547173,-3.5586344 h -5.463029 c 0.311749,-0.5847959 0.487999,-1.2557239 0.487999,-1.9674531 0,-2.3210508 -1.875247,-4.2069074 -4.193351,-4.2069074 -2.318033,0 -4.193281,1.8813219 -4.193281,4.2069074 0,0.7117292 0.17618,1.3781226 0.488001,1.9674531 h -5.463031 c -1.956603,0 -3.547173,1.5911744 -3.547173,3.5586344 v 5.974874 c 0.560287,-0.344528 1.215534,-0.543933 1.920392,-0.543933 2.037959,0 3.687279,1.659145 3.687279,3.699167 0,2.039952 -1.653854,3.699166 -3.687279,3.699166 -0.704858,0 -1.360105,-0.204008 -1.920392,-0.544001 v 6.110856 c 0,1.962925 1.586035,3.558648 3.547173,3.558648 h 5.399745 c -0.266606,0.553072 -0.424715,1.174168 -0.424715,1.831478 0,2.321058 1.875248,4.206886 4.193281,4.206886 2.318104,0 4.193351,-1.881294 4.193351,-4.206886 0,-0.65731 -0.153643,-1.278406 -0.424784,-1.831478 h 5.399814 c 1.956604,0 3.547173,-1.591187 3.547173,-3.558648 v -5.852495 c -0.43832,0.185869 -0.921854,0.290175 -1.432461,0.290175 -2.037891,0 -3.68721,-1.659214 -3.68721,-3.699166 0,-2.040021 1.653854,-3.699235 3.68721,-3.699235 z"
           fill="url(#paint0_linear_162_1247)"
           id="path33415"
           style="fill:none;fill-opacity:1;stroke:url(#linearGradient33930);stroke-width:1.78062;stroke-dasharray:none;stroke-opacity:1" /><path
           d="m 29.497745,18.548117 c -0.540514,0 -1.051158,0.127193 -1.505914,0.351538 v -4.468711 c 0,-1.619221 -1.308321,-2.935551 -2.926068,-2.935551 h -4.812087 c 0.152813,0.362733 0.238515,0.762837 0.238515,1.185453 0,1.686501 -1.36421,3.051447 -3.041585,3.051447 -1.677374,0 -3.041584,-1.368687 -3.041584,-3.051447 0,-0.418876 0.0857,-0.818979 0.238572,-1.185453 H 9.9472258 c -1.6139481,0 -2.9260229,1.312589 -2.9260229,2.935551 v 4.521085 C 6.5403633,18.693958 5.988704,18.548117 5.4034906,18.548117 c -1.9084542,0 -3.4590695,1.551938 -3.4590695,3.470324 0,1.918384 1.5468918,3.470267 3.4590695,3.470267 0.5852134,0 1.1331483,-0.145841 1.6177123,-0.403856 v 4.521085 c 0,1.61922 1.3083329,2.935534 2.9260229,2.935534 h 4.9128102 c -0.283294,-0.463711 -0.447273,-1.005926 -0.447273,-1.589293 0,-1.686556 1.364209,-3.051447 3.041585,-3.051447 1.677318,0 3.041584,1.368631 3.041584,3.051447 0,0.583367 -0.16772,1.125582 -0.447273,1.589293 h 5.024586 c 1.614006,0 2.926068,-1.312574 2.926068,-2.935534 v -4.468768 c 0.4547,0.220661 0.965399,0.351539 1.505857,0.351539 1.908466,0 3.459102,-1.551883 3.459102,-3.470267 0,-1.918386 -1.546895,-3.470324 -3.459102,-3.470324 z"
           fill="url(#paint1_linear_162_1247)"
           id="path33417"
           style="fill:none;fill-opacity:1;stroke:url(#linearGradient33932);stroke-width:1.78062;stroke-dasharray:none;stroke-opacity:1" /></g></g></g></svg>
